<mxfile host="app.diagrams.net" modified="2024-03-08T13:31:16.450Z" agent="Mozilla/5.0 (Macintosh; Intel Mac OS X 10_15_7) AppleWebKit/537.36 (KHTML, like Gecko) Chrome/122.0.0.0 Safari/537.36" etag="ktfyiPL9h4GvyS-CkM2c" version="24.0.2" type="device">
  <diagram name="Page-1" id="LMUg8WtjK0aGx7QhJMUA">
    <mxGraphModel dx="1425" dy="839" grid="1" gridSize="10" guides="1" tooltips="1" connect="1" arrows="1" fold="1" page="1" pageScale="1" pageWidth="827" pageHeight="1169" math="0" shadow="0">
      <root>
        <mxCell id="0" />
        <mxCell id="1" parent="0" />
        <mxCell id="7B9iphoTJnbB62WHxE90-24" value="" style="endArrow=classic;html=1;rounded=1;labelBackgroundColor=none;fontColor=default;entryX=0.5;entryY=0;entryDx=0;entryDy=0;" parent="1" source="7B9iphoTJnbB62WHxE90-25" target="7B9iphoTJnbB62WHxE90-121" edge="1">
          <mxGeometry width="50" height="50" relative="1" as="geometry">
            <mxPoint x="749.4599999999999" y="360" as="sourcePoint" />
            <mxPoint x="749.38" y="422" as="targetPoint" />
          </mxGeometry>
        </mxCell>
        <mxCell id="7B9iphoTJnbB62WHxE90-25" value="User selects team members" style="html=1;strokeWidth=2;shape=manualInput;whiteSpace=wrap;rounded=1;size=26;arcSize=11;labelBackgroundColor=none;fontSize=14;fillColor=#1ba1e2;fontColor=#000000;strokeColor=#000000;" parent="1" vertex="1">
          <mxGeometry x="750" y="210" width="170" height="80" as="geometry" />
        </mxCell>
        <mxCell id="7B9iphoTJnbB62WHxE90-28" value="User Selects attack type&lt;br&gt;specialAttack()" style="html=1;strokeWidth=2;shape=manualInput;whiteSpace=wrap;rounded=1;size=26;arcSize=11;labelBackgroundColor=none;fillColor=#1ba1e2;strokeColor=#006EAF;fontColor=#000000;fontSize=14;" parent="1" vertex="1">
          <mxGeometry x="477.5" y="660" width="130" height="110" as="geometry" />
        </mxCell>
        <mxCell id="7B9iphoTJnbB62WHxE90-30" value="" style="endArrow=classic;html=1;rounded=1;entryX=0.5;entryY=0;entryDx=0;entryDy=0;exitX=0.5;exitY=1;exitDx=0;exitDy=0;labelBackgroundColor=none;fontColor=default;" parent="1" source="2P-WPIm-e7eZBFaIJRGG-25" target="7B9iphoTJnbB62WHxE90-35" edge="1">
          <mxGeometry width="50" height="50" relative="1" as="geometry">
            <mxPoint x="434.5" y="870" as="sourcePoint" />
            <mxPoint x="537.5" y="940" as="targetPoint" />
          </mxGeometry>
        </mxCell>
        <mxCell id="7B9iphoTJnbB62WHxE90-35" value="Apply damage modifiers to attacker" style="rounded=1;whiteSpace=wrap;html=1;absoluteArcSize=1;arcSize=14;strokeWidth=2;labelBackgroundColor=none;" parent="1" vertex="1">
          <mxGeometry x="472.5" y="940" width="140" height="85" as="geometry" />
        </mxCell>
        <mxCell id="7B9iphoTJnbB62WHxE90-41" value="" style="edgeStyle=orthogonalEdgeStyle;rounded=1;orthogonalLoop=1;jettySize=auto;html=1;labelBackgroundColor=none;fontColor=default;exitX=1;exitY=0.5;exitDx=0;exitDy=0;exitPerimeter=0;" parent="1" source="2P-WPIm-e7eZBFaIJRGG-10" target="7B9iphoTJnbB62WHxE90-40" edge="1">
          <mxGeometry relative="1" as="geometry">
            <mxPoint x="880" y="1340" as="sourcePoint" />
          </mxGeometry>
        </mxCell>
        <mxCell id="7B9iphoTJnbB62WHxE90-43" value="" style="edgeStyle=orthogonalEdgeStyle;rounded=1;orthogonalLoop=1;jettySize=auto;html=1;labelBackgroundColor=none;fontColor=default;" parent="1" target="7B9iphoTJnbB62WHxE90-42" edge="1">
          <mxGeometry relative="1" as="geometry">
            <mxPoint x="790" y="1530" as="sourcePoint" />
          </mxGeometry>
        </mxCell>
        <mxCell id="7B9iphoTJnbB62WHxE90-40" value="TRUE (HIT)" style="rounded=1;whiteSpace=wrap;html=1;absoluteArcSize=1;arcSize=14;strokeWidth=2;labelBackgroundColor=none;fillColor=#60a917;strokeColor=#2D7600;fontColor=#ffffff;" parent="1" vertex="1">
          <mxGeometry x="960" y="1290" width="100" height="100" as="geometry" />
        </mxCell>
        <mxCell id="7B9iphoTJnbB62WHxE90-47" value="" style="edgeStyle=orthogonalEdgeStyle;rounded=1;orthogonalLoop=1;jettySize=auto;html=1;labelBackgroundColor=none;fontColor=default;entryX=0.5;entryY=1;entryDx=0;entryDy=0;exitX=1;exitY=0.5;exitDx=0;exitDy=0;" parent="1" source="7B9iphoTJnbB62WHxE90-42" target="7B9iphoTJnbB62WHxE90-56" edge="1">
          <mxGeometry relative="1" as="geometry">
            <mxPoint x="1610" y="1720" as="targetPoint" />
            <Array as="points">
              <mxPoint x="880" y="1580" />
              <mxPoint x="880" y="1680" />
              <mxPoint x="1590" y="1680" />
            </Array>
          </mxGeometry>
        </mxCell>
        <mxCell id="7B9iphoTJnbB62WHxE90-96" value="1st attempt" style="edgeLabel;html=1;align=center;verticalAlign=middle;resizable=0;points=[];" parent="7B9iphoTJnbB62WHxE90-47" vertex="1" connectable="0">
          <mxGeometry x="-0.0062" y="4" relative="1" as="geometry">
            <mxPoint x="-286" as="offset" />
          </mxGeometry>
        </mxCell>
        <mxCell id="7B9iphoTJnbB62WHxE90-61" value="" style="edgeStyle=orthogonalEdgeStyle;rounded=1;orthogonalLoop=1;jettySize=auto;html=1;labelBackgroundColor=none;fontColor=default;entryX=0.5;entryY=0;entryDx=0;entryDy=0;" parent="1" source="7B9iphoTJnbB62WHxE90-42" target="7B9iphoTJnbB62WHxE90-67" edge="1">
          <mxGeometry relative="1" as="geometry">
            <mxPoint x="610" y="1610" as="targetPoint" />
          </mxGeometry>
        </mxCell>
        <mxCell id="7B9iphoTJnbB62WHxE90-83" value="2nd Attempt" style="edgeLabel;html=1;align=center;verticalAlign=middle;resizable=0;points=[];" parent="7B9iphoTJnbB62WHxE90-61" vertex="1" connectable="0">
          <mxGeometry x="-0.2769" relative="1" as="geometry">
            <mxPoint y="25" as="offset" />
          </mxGeometry>
        </mxCell>
        <mxCell id="7B9iphoTJnbB62WHxE90-42" value="FALSE (MISS)" style="rounded=1;whiteSpace=wrap;html=1;absoluteArcSize=1;arcSize=14;strokeWidth=2;labelBackgroundColor=none;fillColor=#f8cecc;strokeColor=#b85450;" parent="1" vertex="1">
          <mxGeometry x="740" y="1530" width="100" height="100" as="geometry" />
        </mxCell>
        <mxCell id="7B9iphoTJnbB62WHxE90-49" value="" style="edgeStyle=orthogonalEdgeStyle;rounded=1;orthogonalLoop=1;jettySize=auto;html=1;labelBackgroundColor=none;fontColor=default;" parent="1" source="2P-WPIm-e7eZBFaIJRGG-4" target="7B9iphoTJnbB62WHxE90-48" edge="1">
          <mxGeometry relative="1" as="geometry">
            <mxPoint x="1250" y="1340" as="sourcePoint" />
          </mxGeometry>
        </mxCell>
        <mxCell id="7B9iphoTJnbB62WHxE90-51" value="" style="edgeStyle=orthogonalEdgeStyle;rounded=1;orthogonalLoop=1;jettySize=auto;html=1;labelBackgroundColor=none;fontColor=default;" parent="1" source="2P-WPIm-e7eZBFaIJRGG-4" target="7B9iphoTJnbB62WHxE90-50" edge="1">
          <mxGeometry relative="1" as="geometry">
            <mxPoint x="1200" y="1530" as="sourcePoint" />
          </mxGeometry>
        </mxCell>
        <mxCell id="7B9iphoTJnbB62WHxE90-57" value="" style="edgeStyle=orthogonalEdgeStyle;rounded=1;orthogonalLoop=1;jettySize=auto;html=1;labelBackgroundColor=none;fontColor=default;" parent="1" source="7B9iphoTJnbB62WHxE90-48" target="7B9iphoTJnbB62WHxE90-56" edge="1">
          <mxGeometry relative="1" as="geometry" />
        </mxCell>
        <mxCell id="7B9iphoTJnbB62WHxE90-97" value="1st attempt" style="edgeLabel;html=1;align=center;verticalAlign=middle;resizable=0;points=[];" parent="7B9iphoTJnbB62WHxE90-57" vertex="1" connectable="0">
          <mxGeometry x="-0.1813" y="-1" relative="1" as="geometry">
            <mxPoint as="offset" />
          </mxGeometry>
        </mxCell>
        <mxCell id="7B9iphoTJnbB62WHxE90-48" value="TRUE (PARRIED)" style="rounded=1;whiteSpace=wrap;html=1;absoluteArcSize=1;arcSize=14;strokeWidth=2;labelBackgroundColor=none;fillColor=#f8cecc;strokeColor=#b85450;" parent="1" vertex="1">
          <mxGeometry x="1330" y="1290" width="100" height="100" as="geometry" />
        </mxCell>
        <mxCell id="7B9iphoTJnbB62WHxE90-53" value="" style="edgeStyle=orthogonalEdgeStyle;rounded=1;orthogonalLoop=1;jettySize=auto;html=1;labelBackgroundColor=none;fontColor=default;entryX=0.5;entryY=0;entryDx=0;entryDy=0;" parent="1" source="7B9iphoTJnbB62WHxE90-50" target="7B9iphoTJnbB62WHxE90-52" edge="1">
          <mxGeometry relative="1" as="geometry" />
        </mxCell>
        <mxCell id="7B9iphoTJnbB62WHxE90-50" value="FALSE (NO PARRY)" style="rounded=1;whiteSpace=wrap;html=1;absoluteArcSize=1;arcSize=14;strokeWidth=2;labelBackgroundColor=none;fillColor=#60a917;strokeColor=#2D7600;fontColor=#ffffff;" parent="1" vertex="1">
          <mxGeometry x="1150" y="1530" width="100" height="100" as="geometry" />
        </mxCell>
        <mxCell id="7B9iphoTJnbB62WHxE90-59" value="" style="edgeStyle=orthogonalEdgeStyle;rounded=1;orthogonalLoop=1;jettySize=auto;html=1;labelBackgroundColor=none;fontColor=default;" parent="1" source="7B9iphoTJnbB62WHxE90-100" target="7B9iphoTJnbB62WHxE90-67" edge="1">
          <mxGeometry relative="1" as="geometry">
            <mxPoint x="960" y="1670" as="targetPoint" />
          </mxGeometry>
        </mxCell>
        <mxCell id="7B9iphoTJnbB62WHxE90-52" value="Calculate Damage dealt" style="rounded=1;whiteSpace=wrap;html=1;absoluteArcSize=1;arcSize=14;strokeWidth=2;labelBackgroundColor=none;" parent="1" vertex="1">
          <mxGeometry x="1150" y="1800" width="100" height="100" as="geometry" />
        </mxCell>
        <mxCell id="7B9iphoTJnbB62WHxE90-56" value="Try again (1st attempt only)" style="rounded=1;whiteSpace=wrap;html=1;absoluteArcSize=1;arcSize=14;strokeWidth=2;labelBackgroundColor=none;" parent="1" vertex="1">
          <mxGeometry x="1540" y="1290" width="100" height="100" as="geometry" />
        </mxCell>
        <mxCell id="7B9iphoTJnbB62WHxE90-63" value="" style="endArrow=classic;html=1;rounded=1;exitX=0.5;exitY=0;exitDx=0;exitDy=0;entryX=0.5;entryY=1;entryDx=0;entryDy=0;labelBackgroundColor=none;fontColor=default;entryPerimeter=0;" parent="1" source="7B9iphoTJnbB62WHxE90-56" target="2P-WPIm-e7eZBFaIJRGG-13" edge="1">
          <mxGeometry width="50" height="50" relative="1" as="geometry">
            <mxPoint x="850" y="1630" as="sourcePoint" />
            <mxPoint x="1589.9999999999995" y="780" as="targetPoint" />
            <Array as="points" />
          </mxGeometry>
        </mxCell>
        <mxCell id="7B9iphoTJnbB62WHxE90-70" value="" style="edgeStyle=orthogonalEdgeStyle;rounded=1;orthogonalLoop=1;jettySize=auto;html=1;labelBackgroundColor=none;fontColor=default;entryX=1;entryY=0.5;entryDx=0;entryDy=0;" parent="1" source="7B9iphoTJnbB62WHxE90-67" target="7B9iphoTJnbB62WHxE90-69" edge="1">
          <mxGeometry relative="1" as="geometry">
            <mxPoint x="700" y="1850" as="targetPoint" />
          </mxGeometry>
        </mxCell>
        <mxCell id="7B9iphoTJnbB62WHxE90-67" value="Next turn (remove first player from turn order)" style="rounded=1;whiteSpace=wrap;html=1;absoluteArcSize=1;arcSize=14;strokeWidth=2;labelBackgroundColor=none;" parent="1" vertex="1">
          <mxGeometry x="740" y="1800" width="100" height="100" as="geometry" />
        </mxCell>
        <mxCell id="7B9iphoTJnbB62WHxE90-72" value="" style="edgeStyle=orthogonalEdgeStyle;rounded=1;orthogonalLoop=1;jettySize=auto;html=1;labelBackgroundColor=none;fontColor=default;" parent="1" source="2P-WPIm-e7eZBFaIJRGG-16" target="7B9iphoTJnbB62WHxE90-71" edge="1">
          <mxGeometry relative="1" as="geometry" />
        </mxCell>
        <mxCell id="7B9iphoTJnbB62WHxE90-69" value="Remove deceased players from turn order" style="rounded=1;whiteSpace=wrap;html=1;absoluteArcSize=1;arcSize=14;strokeWidth=2;labelBackgroundColor=none;fillColor=#f8cecc;strokeColor=#b85450;" parent="1" vertex="1">
          <mxGeometry x="560" y="1800" width="100" height="100" as="geometry" />
        </mxCell>
        <mxCell id="7B9iphoTJnbB62WHxE90-71" value="Sort and set new turn order" style="rounded=1;whiteSpace=wrap;html=1;absoluteArcSize=1;arcSize=14;strokeWidth=2;labelBackgroundColor=none;" parent="1" vertex="1">
          <mxGeometry x="310" y="1400" width="100" height="100" as="geometry" />
        </mxCell>
        <mxCell id="7B9iphoTJnbB62WHxE90-77" value="" style="endArrow=classic;html=1;rounded=1;exitX=0.5;exitY=1;exitDx=0;exitDy=0;entryX=0.5;entryY=1;entryDx=0;entryDy=0;labelBackgroundColor=none;fontColor=default;" parent="1" source="7B9iphoTJnbB62WHxE90-48" edge="1">
          <mxGeometry width="50" height="50" relative="1" as="geometry">
            <mxPoint x="1370" y="1400" as="sourcePoint" />
            <mxPoint x="780" y="1910" as="targetPoint" />
            <Array as="points">
              <mxPoint x="1370" y="1970" />
              <mxPoint x="780" y="1970" />
            </Array>
          </mxGeometry>
        </mxCell>
        <mxCell id="7B9iphoTJnbB62WHxE90-82" value="2nd Attempt" style="edgeLabel;html=1;align=center;verticalAlign=middle;resizable=0;points=[];" parent="7B9iphoTJnbB62WHxE90-77" vertex="1" connectable="0">
          <mxGeometry x="-0.8777" relative="1" as="geometry">
            <mxPoint y="21" as="offset" />
          </mxGeometry>
        </mxCell>
        <mxCell id="7B9iphoTJnbB62WHxE90-80" value="User Action" style="html=1;strokeWidth=2;shape=manualInput;whiteSpace=wrap;rounded=1;size=26;arcSize=11;labelBackgroundColor=none;fontSize=14;fillColor=#1ba1e2;fontColor=#000000;strokeColor=#006EAF;" parent="1" vertex="1">
          <mxGeometry x="30" y="10" width="120" height="60" as="geometry" />
        </mxCell>
        <mxCell id="7B9iphoTJnbB62WHxE90-81" value="Process" style="rounded=1;whiteSpace=wrap;html=1;absoluteArcSize=1;arcSize=14;strokeWidth=2;labelBackgroundColor=none;" parent="1" vertex="1">
          <mxGeometry x="190" y="10" width="120" height="60" as="geometry" />
        </mxCell>
        <mxCell id="7B9iphoTJnbB62WHxE90-92" value="" style="edgeStyle=orthogonalEdgeStyle;rounded=0;orthogonalLoop=1;jettySize=auto;html=1;" parent="1" edge="1">
          <mxGeometry relative="1" as="geometry">
            <mxPoint x="510" y="860.0000000000002" as="targetPoint" />
          </mxGeometry>
        </mxCell>
        <mxCell id="7B9iphoTJnbB62WHxE90-94" value="" style="edgeStyle=orthogonalEdgeStyle;rounded=0;orthogonalLoop=1;jettySize=auto;html=1;" parent="1" edge="1">
          <mxGeometry relative="1" as="geometry">
            <mxPoint x="330.0000000000002" y="810.0000000000002" as="sourcePoint" />
          </mxGeometry>
        </mxCell>
        <mxCell id="7B9iphoTJnbB62WHxE90-87" value="" style="edgeStyle=orthogonalEdgeStyle;rounded=0;orthogonalLoop=1;jettySize=auto;html=1;exitX=0.5;exitY=0;exitDx=0;exitDy=0;exitPerimeter=0;" parent="1" source="2P-WPIm-e7eZBFaIJRGG-13" target="7B9iphoTJnbB62WHxE90-86" edge="1">
          <mxGeometry relative="1" as="geometry">
            <mxPoint x="1589.9999999999995" y="680" as="sourcePoint" />
          </mxGeometry>
        </mxCell>
        <mxCell id="7B9iphoTJnbB62WHxE90-89" value="" style="edgeStyle=orthogonalEdgeStyle;rounded=0;orthogonalLoop=1;jettySize=auto;html=1;exitX=0;exitY=0.5;exitDx=0;exitDy=0;exitPerimeter=0;" parent="1" source="2P-WPIm-e7eZBFaIJRGG-13" target="7B9iphoTJnbB62WHxE90-88" edge="1">
          <mxGeometry relative="1" as="geometry">
            <mxPoint x="1534.9999999999995" y="790" as="sourcePoint" />
          </mxGeometry>
        </mxCell>
        <mxCell id="7B9iphoTJnbB62WHxE90-86" value="FALSE (FAIL)" style="rounded=1;whiteSpace=wrap;html=1;absoluteArcSize=1;arcSize=14;strokeWidth=2;labelBackgroundColor=none;fillColor=#fad9d5;strokeColor=#ae4132;" parent="1" vertex="1">
          <mxGeometry x="1540" y="534" width="100" height="100" as="geometry" />
        </mxCell>
        <mxCell id="7B9iphoTJnbB62WHxE90-88" value="TRUE (SUCCESS)" style="rounded=1;whiteSpace=wrap;html=1;absoluteArcSize=1;arcSize=14;strokeWidth=2;labelBackgroundColor=none;fillColor=#60a917;fontColor=#ffffff;strokeColor=#2D7600;" parent="1" vertex="1">
          <mxGeometry x="1195" y="740" width="100" height="100" as="geometry" />
        </mxCell>
        <mxCell id="7B9iphoTJnbB62WHxE90-102" value="Next turn (remove first player from turn order)" style="rounded=1;whiteSpace=wrap;html=1;absoluteArcSize=1;arcSize=14;strokeWidth=2;labelBackgroundColor=none;" parent="1" vertex="1">
          <mxGeometry x="1370" y="534" width="100" height="100" as="geometry" />
        </mxCell>
        <mxCell id="7B9iphoTJnbB62WHxE90-104" value="" style="endArrow=classic;html=1;rounded=0;exitX=0;exitY=0.5;exitDx=0;exitDy=0;entryX=1;entryY=0.5;entryDx=0;entryDy=0;" parent="1" source="7B9iphoTJnbB62WHxE90-86" target="7B9iphoTJnbB62WHxE90-102" edge="1">
          <mxGeometry width="50" height="50" relative="1" as="geometry">
            <mxPoint x="730" y="929" as="sourcePoint" />
            <mxPoint x="780" y="879" as="targetPoint" />
          </mxGeometry>
        </mxCell>
        <mxCell id="7B9iphoTJnbB62WHxE90-110" value="" style="endArrow=classic;html=1;rounded=0;exitX=0;exitY=0.5;exitDx=0;exitDy=0;entryX=1;entryY=0.5;entryDx=0;entryDy=0;" parent="1" source="TtwM5m7Jx-G9wSP1UyuJ-9" target="2P-WPIm-e7eZBFaIJRGG-15" edge="1">
          <mxGeometry width="50" height="50" relative="1" as="geometry">
            <mxPoint x="980" y="860" as="sourcePoint" />
            <mxPoint x="1120" y="535" as="targetPoint" />
          </mxGeometry>
        </mxCell>
        <mxCell id="7B9iphoTJnbB62WHxE90-116" value="" style="endArrow=classic;html=1;rounded=0;exitX=0.5;exitY=0;exitDx=0;exitDy=0;entryX=0;entryY=0.25;entryDx=0;entryDy=0;" parent="1" source="7B9iphoTJnbB62WHxE90-71" target="2P-WPIm-e7eZBFaIJRGG-15" edge="1">
          <mxGeometry width="50" height="50" relative="1" as="geometry">
            <mxPoint x="370" y="1980" as="sourcePoint" />
            <mxPoint x="370" y="910" as="targetPoint" />
            <Array as="points">
              <mxPoint x="370" y="570" />
            </Array>
          </mxGeometry>
        </mxCell>
        <mxCell id="7B9iphoTJnbB62WHxE90-120" value="" style="edgeStyle=orthogonalEdgeStyle;rounded=1;orthogonalLoop=1;jettySize=auto;html=1;labelBackgroundColor=none;fontColor=default;" parent="1" source="7B9iphoTJnbB62WHxE90-52" target="7B9iphoTJnbB62WHxE90-100" edge="1">
          <mxGeometry relative="1" as="geometry">
            <mxPoint x="1150" y="1850" as="sourcePoint" />
            <mxPoint x="880" y="1850" as="targetPoint" />
          </mxGeometry>
        </mxCell>
        <mxCell id="7B9iphoTJnbB62WHxE90-100" value="Find selected attack combatant modifiers and apply" style="rounded=1;whiteSpace=wrap;html=1;absoluteArcSize=1;arcSize=14;strokeWidth=2;labelBackgroundColor=none;" parent="1" vertex="1">
          <mxGeometry x="940" y="1800" width="140" height="100" as="geometry" />
        </mxCell>
        <mxCell id="7B9iphoTJnbB62WHxE90-121" value="Collect all players and sort by speed etc" style="rounded=1;whiteSpace=wrap;html=1;absoluteArcSize=1;arcSize=14;strokeWidth=2;labelBackgroundColor=none;" parent="1" vertex="1">
          <mxGeometry x="755" y="330" width="160" height="80" as="geometry" />
        </mxCell>
        <mxCell id="TtwM5m7Jx-G9wSP1UyuJ-1" value="" style="endArrow=classic;html=1;rounded=0;exitX=0.5;exitY=1;exitDx=0;exitDy=0;entryX=0.5;entryY=0;entryDx=0;entryDy=0;entryPerimeter=0;" parent="1" source="7B9iphoTJnbB62WHxE90-121" target="TtwM5m7Jx-G9wSP1UyuJ-2" edge="1">
          <mxGeometry width="50" height="50" relative="1" as="geometry">
            <mxPoint x="890" y="440" as="sourcePoint" />
            <mxPoint x="165" y="600" as="targetPoint" />
          </mxGeometry>
        </mxCell>
        <mxCell id="TtwM5m7Jx-G9wSP1UyuJ-2" value="Set turn order" style="strokeWidth=2;html=1;shape=mxgraph.flowchart.stored_data;whiteSpace=wrap;" parent="1" vertex="1">
          <mxGeometry x="752.5" y="450" width="165" height="70" as="geometry" />
        </mxCell>
        <mxCell id="TtwM5m7Jx-G9wSP1UyuJ-3" value="Fetch User Database" style="strokeWidth=2;html=1;shape=mxgraph.flowchart.direct_data;whiteSpace=wrap;" parent="1" vertex="1">
          <mxGeometry x="740" y="20" width="190" height="80" as="geometry" />
        </mxCell>
        <mxCell id="TtwM5m7Jx-G9wSP1UyuJ-4" value="Set user, cardList, opponent, attacks" style="strokeWidth=2;html=1;shape=mxgraph.flowchart.stored_data;whiteSpace=wrap;" parent="1" vertex="1">
          <mxGeometry x="745" y="120" width="180" height="60" as="geometry" />
        </mxCell>
        <mxCell id="TtwM5m7Jx-G9wSP1UyuJ-5" value="Stored Data" style="strokeWidth=2;html=1;shape=mxgraph.flowchart.stored_data;whiteSpace=wrap;" parent="1" vertex="1">
          <mxGeometry x="185" y="100" width="130" height="60" as="geometry" />
        </mxCell>
        <mxCell id="TtwM5m7Jx-G9wSP1UyuJ-6" value="Raw Data" style="strokeWidth=2;html=1;shape=mxgraph.flowchart.direct_data;whiteSpace=wrap;" parent="1" vertex="1">
          <mxGeometry x="10" y="100" width="140" height="60" as="geometry" />
        </mxCell>
        <mxCell id="TtwM5m7Jx-G9wSP1UyuJ-10" value="" style="endArrow=classic;html=1;rounded=0;exitX=0;exitY=0.5;exitDx=0;exitDy=0;entryX=1;entryY=0.5;entryDx=0;entryDy=0;" parent="1" source="2P-WPIm-e7eZBFaIJRGG-17" target="TtwM5m7Jx-G9wSP1UyuJ-9" edge="1">
          <mxGeometry width="50" height="50" relative="1" as="geometry">
            <mxPoint x="1330" y="584" as="sourcePoint" />
            <mxPoint x="1200" y="584" as="targetPoint" />
          </mxGeometry>
        </mxCell>
        <mxCell id="TtwM5m7Jx-G9wSP1UyuJ-9" value="Sort and set new turn order" style="rounded=1;whiteSpace=wrap;html=1;absoluteArcSize=1;arcSize=14;strokeWidth=2;labelBackgroundColor=none;" parent="1" vertex="1">
          <mxGeometry x="1000" y="535" width="100" height="100" as="geometry" />
        </mxCell>
        <mxCell id="2P-WPIm-e7eZBFaIJRGG-2" value="" style="endArrow=classic;html=1;rounded=0;exitX=0.5;exitY=1;exitDx=0;exitDy=0;entryX=0.5;entryY=0;entryDx=0;entryDy=0;" edge="1" parent="1" source="7B9iphoTJnbB62WHxE90-35" target="2P-WPIm-e7eZBFaIJRGG-1">
          <mxGeometry width="50" height="50" relative="1" as="geometry">
            <mxPoint x="537.5" y="1025" as="sourcePoint" />
            <mxPoint x="537.5" y="1310" as="targetPoint" />
          </mxGeometry>
        </mxCell>
        <mxCell id="2P-WPIm-e7eZBFaIJRGG-1" value="User selects defender&lt;br&gt;selectDefender()" style="html=1;strokeWidth=2;shape=manualInput;whiteSpace=wrap;rounded=1;size=26;arcSize=11;labelBackgroundColor=none;fontSize=14;fillColor=#1ba1e2;fontColor=#000000;strokeColor=#006EAF;" vertex="1" parent="1">
          <mxGeometry x="477.5" y="1090" width="130" height="100" as="geometry" />
        </mxCell>
        <mxCell id="2P-WPIm-e7eZBFaIJRGG-4" value="Parry&amp;nbsp;&lt;br&gt;TRUE/FALSE" style="strokeWidth=2;html=1;shape=mxgraph.flowchart.decision;whiteSpace=wrap;" vertex="1" parent="1">
          <mxGeometry x="1135" y="1280" width="130" height="120" as="geometry" />
        </mxCell>
        <mxCell id="2P-WPIm-e7eZBFaIJRGG-8" value="" style="endArrow=classic;html=1;rounded=0;exitX=1;exitY=0.5;exitDx=0;exitDy=0;entryX=0;entryY=0.5;entryDx=0;entryDy=0;entryPerimeter=0;" edge="1" parent="1" source="7B9iphoTJnbB62WHxE90-40" target="2P-WPIm-e7eZBFaIJRGG-4">
          <mxGeometry width="50" height="50" relative="1" as="geometry">
            <mxPoint x="1050" y="1480" as="sourcePoint" />
            <mxPoint x="1100" y="1430" as="targetPoint" />
          </mxGeometry>
        </mxCell>
        <mxCell id="2P-WPIm-e7eZBFaIJRGG-11" value="" style="edgeStyle=orthogonalEdgeStyle;rounded=0;orthogonalLoop=1;jettySize=auto;html=1;exitX=0.5;exitY=1;exitDx=0;exitDy=0;exitPerimeter=0;" edge="1" parent="1" source="2P-WPIm-e7eZBFaIJRGG-10" target="7B9iphoTJnbB62WHxE90-42">
          <mxGeometry relative="1" as="geometry" />
        </mxCell>
        <mxCell id="2P-WPIm-e7eZBFaIJRGG-10" value="Hit/Miss&lt;br&gt;TRUE/FALSE" style="strokeWidth=2;html=1;shape=mxgraph.flowchart.decision;whiteSpace=wrap;" vertex="1" parent="1">
          <mxGeometry x="730" y="1280" width="120" height="120" as="geometry" />
        </mxCell>
        <mxCell id="2P-WPIm-e7eZBFaIJRGG-13" value="2nd Attempt TRUE/FALSE" style="strokeWidth=2;html=1;shape=mxgraph.flowchart.decision;whiteSpace=wrap;" vertex="1" parent="1">
          <mxGeometry x="1530" y="730" width="120" height="120" as="geometry" />
        </mxCell>
        <mxCell id="2P-WPIm-e7eZBFaIJRGG-15" value="Set attacker (turnOrder[0])" style="rounded=1;whiteSpace=wrap;html=1;absoluteArcSize=1;arcSize=14;strokeWidth=2;labelBackgroundColor=none;" vertex="1" parent="1">
          <mxGeometry x="750" y="555" width="170" height="60" as="geometry" />
        </mxCell>
        <mxCell id="2P-WPIm-e7eZBFaIJRGG-20" value="" style="endArrow=classic;html=1;rounded=0;exitX=0.5;exitY=1;exitDx=0;exitDy=0;entryX=0.5;entryY=0;entryDx=0;entryDy=0;exitPerimeter=0;" edge="1" parent="1" source="TtwM5m7Jx-G9wSP1UyuJ-2" target="2P-WPIm-e7eZBFaIJRGG-15">
          <mxGeometry width="50" height="50" relative="1" as="geometry">
            <mxPoint x="860" y="505" as="sourcePoint" />
            <mxPoint x="860" y="555" as="targetPoint" />
          </mxGeometry>
        </mxCell>
        <mxCell id="2P-WPIm-e7eZBFaIJRGG-21" value="" style="endArrow=classic;html=1;rounded=0;exitX=0.5;exitY=1;exitDx=0;exitDy=0;entryX=0.487;entryY=0.155;entryDx=0;entryDy=0;entryPerimeter=0;exitPerimeter=0;" edge="1" parent="1" source="TtwM5m7Jx-G9wSP1UyuJ-4" target="7B9iphoTJnbB62WHxE90-25">
          <mxGeometry width="50" height="50" relative="1" as="geometry">
            <mxPoint x="834.64" y="180" as="sourcePoint" />
            <mxPoint x="834.64" y="230" as="targetPoint" />
          </mxGeometry>
        </mxCell>
        <mxCell id="2P-WPIm-e7eZBFaIJRGG-22" value="" style="edgeStyle=orthogonalEdgeStyle;rounded=1;orthogonalLoop=1;jettySize=auto;html=1;labelBackgroundColor=none;fontColor=default;" edge="1" parent="1" source="7B9iphoTJnbB62WHxE90-69" target="2P-WPIm-e7eZBFaIJRGG-16">
          <mxGeometry relative="1" as="geometry">
            <mxPoint x="560" y="1850" as="sourcePoint" />
            <mxPoint x="360" y="1500" as="targetPoint" />
          </mxGeometry>
        </mxCell>
        <mxCell id="2P-WPIm-e7eZBFaIJRGG-16" value="Check for expired modifiers" style="rounded=1;whiteSpace=wrap;html=1;absoluteArcSize=1;arcSize=14;strokeWidth=2;labelBackgroundColor=none;" vertex="1" parent="1">
          <mxGeometry x="310" y="1800" width="100" height="100" as="geometry" />
        </mxCell>
        <mxCell id="2P-WPIm-e7eZBFaIJRGG-23" value="" style="endArrow=classic;html=1;rounded=0;exitX=0;exitY=0.5;exitDx=0;exitDy=0;entryX=1;entryY=0.5;entryDx=0;entryDy=0;" edge="1" parent="1" source="7B9iphoTJnbB62WHxE90-102" target="2P-WPIm-e7eZBFaIJRGG-17">
          <mxGeometry width="50" height="50" relative="1" as="geometry">
            <mxPoint x="1370" y="584" as="sourcePoint" />
            <mxPoint x="1100" y="585" as="targetPoint" />
          </mxGeometry>
        </mxCell>
        <mxCell id="2P-WPIm-e7eZBFaIJRGG-17" value="Check for expired modifiers" style="rounded=1;whiteSpace=wrap;html=1;absoluteArcSize=1;arcSize=14;strokeWidth=2;labelBackgroundColor=none;" vertex="1" parent="1">
          <mxGeometry x="1190" y="534" width="100" height="100" as="geometry" />
        </mxCell>
        <mxCell id="2P-WPIm-e7eZBFaIJRGG-26" value="" style="endArrow=classic;html=1;rounded=1;entryX=0.5;entryY=0;entryDx=0;entryDy=0;exitX=0.5;exitY=1;exitDx=0;exitDy=0;labelBackgroundColor=none;fontColor=default;" edge="1" parent="1" source="7B9iphoTJnbB62WHxE90-28" target="2P-WPIm-e7eZBFaIJRGG-25">
          <mxGeometry width="50" height="50" relative="1" as="geometry">
            <mxPoint x="542.5" y="770" as="sourcePoint" />
            <mxPoint x="542.5" y="940" as="targetPoint" />
          </mxGeometry>
        </mxCell>
        <mxCell id="2P-WPIm-e7eZBFaIJRGG-25" value="store current attack" style="strokeWidth=2;html=1;shape=mxgraph.flowchart.stored_data;whiteSpace=wrap;" vertex="1" parent="1">
          <mxGeometry x="460" y="810" width="165" height="70" as="geometry" />
        </mxCell>
        <mxCell id="2P-WPIm-e7eZBFaIJRGG-27" value="If currentAttack &amp;amp;&amp;amp; currentDefender&lt;br&gt;runTurn()" style="strokeWidth=2;html=1;shape=mxgraph.flowchart.decision;whiteSpace=wrap;" vertex="1" parent="1">
          <mxGeometry x="710" y="860" width="160" height="130" as="geometry" />
        </mxCell>
        <mxCell id="2P-WPIm-e7eZBFaIJRGG-28" value="" style="endArrow=classic;html=1;rounded=0;exitX=1;exitY=0.5;exitDx=0;exitDy=0;entryX=0.239;entryY=0.234;entryDx=0;entryDy=0;entryPerimeter=0;" edge="1" parent="1" source="7B9iphoTJnbB62WHxE90-28" target="2P-WPIm-e7eZBFaIJRGG-27">
          <mxGeometry width="50" height="50" relative="1" as="geometry">
            <mxPoint x="530" y="810" as="sourcePoint" />
            <mxPoint x="580" y="760" as="targetPoint" />
          </mxGeometry>
        </mxCell>
        <mxCell id="2P-WPIm-e7eZBFaIJRGG-30" value="" style="endArrow=classic;html=1;rounded=0;exitX=1;exitY=0.5;exitDx=0;exitDy=0;entryX=0.25;entryY=0.769;entryDx=0;entryDy=0;entryPerimeter=0;" edge="1" parent="1" source="2P-WPIm-e7eZBFaIJRGG-1" target="2P-WPIm-e7eZBFaIJRGG-27">
          <mxGeometry width="50" height="50" relative="1" as="geometry">
            <mxPoint x="218" y="575" as="sourcePoint" />
            <mxPoint x="408" y="780" as="targetPoint" />
          </mxGeometry>
        </mxCell>
        <mxCell id="2P-WPIm-e7eZBFaIJRGG-31" value="" style="endArrow=classic;html=1;rounded=0;exitX=0.5;exitY=1;exitDx=0;exitDy=0;exitPerimeter=0;entryX=0.5;entryY=0;entryDx=0;entryDy=0;entryPerimeter=0;" edge="1" parent="1" source="2P-WPIm-e7eZBFaIJRGG-27" target="2P-WPIm-e7eZBFaIJRGG-10">
          <mxGeometry width="50" height="50" relative="1" as="geometry">
            <mxPoint x="800" y="1050" as="sourcePoint" />
            <mxPoint x="850" y="1000" as="targetPoint" />
          </mxGeometry>
        </mxCell>
        <mxCell id="2P-WPIm-e7eZBFaIJRGG-33" value="" style="endArrow=classic;html=1;rounded=0;exitX=0;exitY=0.5;exitDx=0;exitDy=0;" edge="1" parent="1" source="7B9iphoTJnbB62WHxE90-88">
          <mxGeometry width="50" height="50" relative="1" as="geometry">
            <mxPoint x="1020" y="870" as="sourcePoint" />
            <mxPoint x="640" y="720" as="targetPoint" />
          </mxGeometry>
        </mxCell>
      </root>
    </mxGraphModel>
  </diagram>
</mxfile>
